<svg xmlns="http://www.w3.org/2000/svg" viewBox="0 0 1920 820" width="1920" height="820" style="background-color: #0B0F17;">
  <defs>
    <!-- Porcelain Gradients -->
    <linearGradient id="owluko_porcelainCream" x1="20%" y1="10%" x2="80%" y2="90%">
      <stop offset="0%" stop-color="#FFFFFF" />
      <stop offset="35%" stop-color="#FAF7F2" />
      <stop offset="75%" stop-color="#ECE6DC" />
      <stop offset="100%" stop-color="#DAD2C3" />
    </linearGradient>

    <linearGradient id="owluko_wingletGrad" x1="25%" y1="15%" x2="75%" y2="85%">
      <stop offset="0%" stop-color="#FFFFFF" />
      <stop offset="40%" stop-color="#FAF7F2" />
      <stop offset="80%" stop-color="#E2DCD0" />
      <stop offset="100%" stop-color="#CDC4B3" />
    </linearGradient>

    <radialGradient id="owluko_amberEye" cx="45%" cy="35%" r="65%">
      <stop offset="0%" stop-color="#FDE047" />
      <stop offset="35%" stop-color="#D99B26" />
      <stop offset="70%" stop-color="#B37A15" />
      <stop offset="100%" stop-color="#451A03" />
    </radialGradient>

    <radialGradient id="owluko_beakGrad" cx="50%" cy="30%" r="70%">
      <stop offset="0%" stop-color="#FFFBEB" />
      <stop offset="50%" stop-color="#FDE68A" />
      <stop offset="100%" stop-color="#D97706" />
    </radialGradient>

    <radialGradient id="owluko_specularDome" cx="45%" cy="25%" r="55%">
      <stop offset="0%" stop-color="#FFFFFF" stop-opacity="0.9" />
      <stop offset="40%" stop-color="#FFFFFF" stop-opacity="0.4" />
      <stop offset="100%" stop-color="#FFFFFF" stop-opacity="0.0" />
    </radialGradient>
  </defs>

  <!-- Header -->
  <rect x="0" y="0" width="1920" height="90" fill="#0F172A" />
  <line x1="0" y1="90" x2="1920" y2="90" stroke="#1F2937" stroke-width="2" />
  <text x="40" y="38" fill="#D99B26" font-family="Helvetica, Arial, sans-serif" font-size="18" font-weight="bold">OWLUKO — PLANCHE DE TURNAROUND DU MODÈLE MASTER (360° CANONIQUE)</text>
  <text x="40" y="68" fill="#94A3B8" font-family="Helvetica, Arial, sans-serif" font-size="12">Standard Studio 100% Fidèle — Porcelaine Crème Satinée, Yeux Orbes Vitreux Ambrés &amp; Zéro Doigts / Zéro Mains</text>
  <rect x="1650" y="26" width="230" height="38" rx="4" fill="#111827" stroke="#10B981" stroke-width="1" />
  <text x="1670" y="50" fill="#10B981" font-family="Helvetica, Arial, sans-serif" font-size="11" font-weight="bold">● 100% FIDÉLITÉ VALIDÉE</text>

  <!-- Guidelines -->
  <g stroke-dasharray="8,8" stroke-width="1" opacity="0.45">
    <line x1="40" y1="175" x2="1880" y2="175" stroke="#94A3B8" />
    <text x="1725" y="168" fill="#94A3B8" font-family="Helvetica, Arial, sans-serif" font-size="10">SOMMET CALOTTE</text>

    <line x1="40" y1="301" x2="1880" y2="301" stroke="#D99B26" />
    <text x="1725" y="294" fill="#D99B26" font-family="Helvetica, Arial, sans-serif" font-size="10">HORIZON YEUX ORBES</text>

    <line x1="40" y1="329" x2="1880" y2="329" stroke="#F59E0B" />
    <text x="1725" y="322" fill="#F59E0B" font-family="Helvetica, Arial, sans-serif" font-size="10">HORIZON BEC</text>

    <line x1="40" y1="359" x2="1880" y2="359" stroke="#94A3B8" />
    <text x="1725" y="352" fill="#94A3B8" font-family="Helvetica, Arial, sans-serif" font-size="10">HORIZON AILERONS</text>

    <line x1="40" y1="565" x2="1880" y2="565" stroke="#94A3B8" />
    <text x="1725" y="558" fill="#94A3B8" font-family="Helvetica, Arial, sans-serif" font-size="10">BASE VENTRE OVOÏDE</text>

    <line x1="40" y1="640" x2="1880" y2="640" stroke="#10B981" />
    <text x="1725" y="633" fill="#10B981" font-family="Helvetica, Arial, sans-serif" font-size="10">LIGNE DE SOL / SERRES</text>
  </g>

  <!-- Column 1: 0° Face -->
  <g id="col_front" transform="translate(0, 0)">
    <rect x="15" y="110" width="450" height="685" fill="#111827" stroke="#1F2937" stroke-width="1" />
    <rect x="25" y="120" width="430" height="38" fill="#0F172A" stroke="#D99B26" stroke-opacity="0.6" stroke-width="1" />
    <text x="38" y="144" fill="#D99B26" font-family="Helvetica, Arial, sans-serif" font-size="13" font-weight="bold">0° — VUE DE FACE (FRONT)</text>

    <!-- Porcelain Body Capsule -->
    <ellipse cx="240" cy="385" rx="145" ry="210" fill="url(#owluko_porcelainCream)" stroke="#C8BEAD" stroke-width="0.8" />
    <ellipse cx="225" cy="270" rx="115" ry="90" fill="url(#owluko_specularDome)" />

    <!-- Symmetrical Teardrop Winglets -->
    <path d="M 102 359 C 85 410, 85 490, 112 535 C 122 510, 132 440, 122 369 Z" fill="url(#owluko_wingletGrad)" stroke="#C8BEAD" stroke-width="0.8" />
    <path d="M 378 359 C 395 410, 395 490, 368 535 C 358 510, 348 440, 358 369 Z" fill="url(#owluko_wingletGrad)" stroke="#C8BEAD" stroke-width="0.8" />

    <!-- 3-Toed Porcelain Feet -->
    <g fill="url(#owluko_porcelainCream)" stroke="#C8BEAD" stroke-width="0.8">
      <path d="M 195 575 C 195 605, 180 628, 160 638 C 157 642, 177 642, 190 638 C 200 642, 220 642, 215 634 C 209 624, 207 600, 207 575 Z" />
      <path d="M 285 575 C 285 605, 270 628, 250 638 C 247 642, 267 642, 280 638 C 290 642, 310 642, 305 634 C 299 624, 297 600, 297 575 Z" />
    </g>

    <!-- Glassy Amber Orb Eyes with Eyelids -->
    <g>
      <circle cx="188" cy="301" r="30" fill="url(#owluko_amberEye)" stroke="#451A03" stroke-width="1.8" />
      <circle cx="292" cy="301" r="30" fill="url(#owluko_amberEye)" stroke="#451A03" stroke-width="1.8" />
      <!-- Porcelain Eyelids -->
      <path d="M 158 296 C 167 276, 209 276, 218 296 C 209 290, 167 290, 158 296 Z" fill="#F4EFE6" stroke="#C8BEAD" stroke-width="0.8" />
      <path d="M 262 296 C 271 276, 313 276, 322 296 C 313 290, 271 290, 262 296 Z" fill="#F4EFE6" stroke="#C8BEAD" stroke-width="0.8" />
      <!-- Specular Highlights -->
      <circle cx="198" cy="291" r="5" fill="#FFFFFF" />
      <circle cx="182" cy="311" r="2.5" fill="#FFFFFF" opacity="0.8" />
      <circle cx="302" cy="291" r="5" fill="#FFFFFF" />
      <circle cx="286" cy="311" r="2.5" fill="#FFFFFF" opacity="0.8" />
    </g>

    <!-- Centered Porcelain Beak -->
    <path d="M 240 300 C 248 318, 246 345, 240 355 C 234 345, 232 318, 240 300 Z" fill="url(#owluko_beakGrad)" stroke="#B45309" stroke-width="0.8" />

    <!-- Footer Description -->
    <rect x="25" y="755" width="430" height="30" fill="#0F172A" stroke="#1F2937" stroke-width="1" />
    <text x="35" y="774" fill="#94A3B8" font-family="Helvetica, Arial, sans-serif" font-size="11">Capsule ovoïde porcelaine, 2 yeux ambrés vitreux, bec crème, 2 ailerons, serres à 3 doigts</text>
  </g>

  <!-- Column 2: 90°R Profil Droit -->
  <g id="col_profile_r" transform="translate(480, 0)">
    <rect x="15" y="110" width="450" height="685" fill="#111827" stroke="#1F2937" stroke-width="1" />
    <rect x="25" y="120" width="430" height="38" fill="#0F172A" stroke="#10B981" stroke-opacity="0.6" stroke-width="1" />
    <text x="38" y="144" fill="#10B981" font-family="Helvetica, Arial, sans-serif" font-size="13" font-weight="bold">90°R — PROFIL DROIT (SIDE RIGHT)</text>

    <!-- Body profile with rear caudal tail -->
    <path d="M 200 175 C 280 175, 330 250, 335 370 C 340 460, 310 535, 235 565 C 170 565, 135 530, 115 500 C 105 470, 115 400, 120 320 C 125 230, 150 175, 200 175 Z" fill="url(#owluko_porcelainCream)" stroke="#C8BEAD" stroke-width="0.8" />
    <ellipse cx="220" cy="270" rx="90" ry="80" fill="url(#owluko_specularDome)" />

    <!-- Centered Winglet -->
    <path d="M 180 300 C 250 305, 280 370, 270 450 C 240 490, 180 470, 170 400 C 165 350, 170 310, 180 300 Z" fill="url(#owluko_wingletGrad)" stroke="#C8BEAD" stroke-width="0.8" />

    <!-- Single Grounded Foot -->
    <path d="M 225 540 C 235 570, 215 585, 195 588 C 195 592, 230 592, 250 588 C 260 582, 245 560, 240 540 Z" fill="url(#owluko_porcelainCream)" stroke="#C8BEAD" stroke-width="0.8" />

    <!-- Beak in profile -->
    <path d="M 332 315 C 350 330, 352 350, 335 357 Z" fill="url(#owluko_beakGrad)" stroke="#B45309" stroke-width="0.8" />

    <!-- Right Eye in profile -->
    <g>
      <ellipse cx="305" cy="301" rx="16" ry="28" fill="url(#owluko_amberEye)" stroke="#451A03" stroke-width="1.5" />
      <path d="M 288 296 C 295 276, 318 276, 323 296 Z" fill="#F4EFE6" stroke="#C8BEAD" stroke-width="0.8" />
      <circle cx="310" cy="291" r="3.5" fill="#FFFFFF" />
    </g>

    <!-- Footer Description -->
    <rect x="25" y="755" width="430" height="30" fill="#0F172A" stroke="#1F2937" stroke-width="1" />
    <text x="35" y="774" fill="#94A3B8" font-family="Helvetica, Arial, sans-serif" font-size="11">Silhouette convexe, œil ambre droit, bec en saillie, aileron centré, queue arrondie</text>
  </g>

  <!-- Column 3: 90°L Profil Gauche -->
  <g id="col_profile_l" transform="translate(960, 0)">
    <rect x="15" y="110" width="450" height="685" fill="#111827" stroke="#1F2937" stroke-width="1" />
    <rect x="25" y="120" width="430" height="38" fill="#0F172A" stroke="#10B981" stroke-opacity="0.6" stroke-width="1" />
    <text x="38" y="144" fill="#10B981" font-family="Helvetica, Arial, sans-serif" font-size="13" font-weight="bold">90°L — PROFIL GAUCHE (SIDE LEFT)</text>

    <!-- Body profile flipped -->
    <path d="M 280 175 C 200 175, 150 250, 145 370 C 140 460, 170 535, 245 565 C 310 565, 345 530, 365 500 C 375 470, 365 400, 360 320 C 355 230, 330 175, 280 175 Z" fill="url(#owluko_porcelainCream)" stroke="#C8BEAD" stroke-width="0.8" />
    <ellipse cx="260" cy="270" rx="90" ry="80" fill="url(#owluko_specularDome)" />

    <!-- Centered Winglet -->
    <path d="M 300 300 C 230 305, 200 370, 210 450 C 240 490, 300 470, 310 400 C 315 350, 310 310, 300 300 Z" fill="url(#owluko_wingletGrad)" stroke="#C8BEAD" stroke-width="0.8" />

    <!-- Single Grounded Foot -->
    <path d="M 255 540 C 245 570, 265 585, 285 588 C 285 592, 250 592, 230 588 C 220 582, 235 560, 240 540 Z" fill="url(#owluko_porcelainCream)" stroke="#C8BEAD" stroke-width="0.8" />

    <!-- Beak in profile -->
    <path d="M 148 315 C 130 330, 128 350, 145 357 Z" fill="url(#owluko_beakGrad)" stroke="#B45309" stroke-width="0.8" />

    <!-- Left Eye in profile -->
    <g>
      <ellipse cx="175" cy="301" rx="16" ry="28" fill="url(#owluko_amberEye)" stroke="#451A03" stroke-width="1.5" />
      <path d="M 157 296 C 162 276, 185 276, 192 296 Z" fill="#F4EFE6" stroke="#C8BEAD" stroke-width="0.8" />
      <circle cx="170" cy="291" r="3.5" fill="#FFFFFF" />
    </g>

    <!-- Footer Description -->
    <rect x="25" y="755" width="430" height="30" fill="#0F172A" stroke="#1F2937" stroke-width="1" />
    <text x="35" y="774" fill="#94A3B8" font-family="Helvetica, Arial, sans-serif" font-size="11">Arc facial opposé, œil gauche, profil bec et aileron flanc, patte gauche au sol</text>
  </g>

  <!-- Column 4: 180° Dos -->
  <g id="col_back" transform="translate(1440, 0)">
    <rect x="15" y="110" width="450" height="685" fill="#111827" stroke="#1F2937" stroke-width="1" />
    <rect x="25" y="120" width="430" height="38" fill="#0F172A" stroke="#10B981" stroke-opacity="0.6" stroke-width="1" />
    <text x="38" y="144" fill="#10B981" font-family="Helvetica, Arial, sans-serif" font-size="13" font-weight="bold">180° — VUE DE DOS (BACK)</text>

    <!-- Body back with caudal point -->
    <path d="M 240 175 C 320 175, 385 240, 385 370 C 385 460, 355 520, 280 560 C 255 575, 225 575, 200 560 C 125 520, 95 460, 95 370 C 95 240, 160 175, 240 175 Z" fill="url(#owluko_porcelainCream)" stroke="#C8BEAD" stroke-width="0.8" />
    <ellipse cx="240" cy="270" rx="115" ry="90" fill="url(#owluko_specularDome)" />

    <!-- Wings flat against flanks -->
    <path d="M 102 359 C 85 410, 85 490, 112 535 C 122 510, 132 440, 122 369 Z" fill="url(#owluko_wingletGrad)" stroke="#C8BEAD" stroke-width="0.8" />
    <path d="M 378 359 C 395 410, 395 490, 368 535 C 358 510, 348 440, 358 369 Z" fill="url(#owluko_wingletGrad)" stroke="#C8BEAD" stroke-width="0.8" />

    <!-- Feet heels -->
    <ellipse cx="200" cy="635" rx="14" ry="7" fill="url(#owluko_porcelainCream)" stroke="#C8BEAD" stroke-width="0.8" />
    <ellipse cx="280" cy="635" rx="14" ry="7" fill="url(#owluko_porcelainCream)" stroke="#C8BEAD" stroke-width="0.8" />

    <!-- Footer Description -->
    <rect x="25" y="755" width="430" height="30" fill="#0F172A" stroke="#1F2937" stroke-width="1" />
    <text x="35" y="774" fill="#94A3B8" font-family="Helvetica, Arial, sans-serif" font-size="11">Porcelaine pure 100% continue (zéro œil/bec), 2 ailerons plaqués, excroissance caudale</text>
  </g>
</svg>