<svg xmlns="http://www.w3.org/2000/svg" viewBox="0 0 512 512" width="512" height="512" style="background: transparent;">
  <defs>
    <!-- Master Body Silhouette Clip -->
    <clipPath id="bodyClip">
      <path d="M 272 40 L 237 40 L 216 44 L 207 48 L 201 49 L 185 57 L 168 69 L 155 82 L 147 94 L 145 95 L 132 119 L 126 134 L 124 145 L 120 155 L 120 162 L 116 174 L 115 183 L 103 194 L 95 213 L 92 231 L 90 235 L 90 246 L 88 255 L 87 271 L 90 314 L 96 339 L 105 359 L 109 363 L 110 366 L 119 374 L 127 377 L 132 382 L 144 400 L 151 407 L 168 421 L 186 430 L 192 437 L 188 451 L 183 459 L 178 462 L 164 465 L 158 470 L 155 479 L 157 485 L 160 488 L 169 489 L 176 485 L 180 485 L 186 489 L 198 489 L 206 485 L 214 485 L 220 489 L 224 489 L 231 486 L 233 482 L 231 469 L 221 461 L 217 451 L 218 445 L 224 441 L 242 443 L 293 441 L 297 446 L 297 455 L 293 461 L 283 470 L 280 476 L 280 484 L 283 488 L 293 489 L 300 485 L 308 485 L 314 489 L 324 489 L 329 485 L 337 485 L 340 487 L 349 488 L 352 487 L 356 483 L 356 474 L 351 466 L 338 462 L 329 456 L 323 442 L 323 434 L 327 429 L 334 427 L 337 424 L 344 421 L 356 411 L 372 395 L 380 382 L 385 377 L 391 376 L 397 373 L 404 366 L 407 358 L 411 353 L 411 350 L 416 339 L 416 334 L 421 317 L 424 290 L 424 260 L 420 228 L 416 217 L 416 213 L 409 197 L 409 194 L 396 183 L 392 166 L 391 155 L 389 152 L 385 135 L 382 130 L 379 120 L 364 93 L 347 73 L 331 60 L 311 50 L 305 49 L 293 44 L 277 42 Z" />
    </clipPath>

    <!-- Master Porcelain Body Gradient -->
    <linearGradient id="bodyGrad" x1="26%" y1="5%" x2="74%" y2="95%">
      <stop offset="0%" stop-color="#FFF8F0" />
      <stop offset="16%" stop-color="#F9EEE2" />
      <stop offset="36%" stop-color="#ECDDD0" />
      <stop offset="60%" stop-color="#D5C1AF" />
      <stop offset="80%" stop-color="#A5907E" />
      <stop offset="100%" stop-color="#6B5747" />
    </linearGradient>

    <!-- Cranial Dome Specular Highlight -->
    <radialGradient id="cranialHl" cx="42%" cy="17%" r="35%">
      <stop offset="0%" stop-color="#FFFFFF" stop-opacity="0.45" />
      <stop offset="45%" stop-color="#FBF4ED" stop-opacity="0.18" />
      <stop offset="100%" stop-color="#ECE0D4" stop-opacity="0" />
    </radialGradient>

    <!-- Upper Right Head Shadow (Soft ambient falloff on shadow side) -->
    <radialGradient id="headRightShadow" cx="72%" cy="18%" r="42%">
      <stop offset="0%" stop-color="#7A6250" stop-opacity="0.32" />
      <stop offset="60%" stop-color="#7A6250" stop-opacity="0.14" />
      <stop offset="100%" stop-color="#7A6250" stop-opacity="0" />
    </radialGradient>

    <!-- Breast / Chest Soft Illumination -->
    <radialGradient id="chestHl" cx="44%" cy="50%" r="40%">
      <stop offset="0%" stop-color="#FFFFFF" stop-opacity="0.25" />
      <stop offset="50%" stop-color="#F8EFE7" stop-opacity="0.10" />
      <stop offset="100%" stop-color="#E2D4C6" stop-opacity="0" />
    </radialGradient>

    <!-- Left Wing Lateral Highlight -->
    <linearGradient id="lWingGrad" x1="0%" y1="20%" x2="100%" y2="80%">
      <stop offset="0%" stop-color="#FFFFFF" stop-opacity="0.30" />
      <stop offset="40%" stop-color="#F8EFE5" stop-opacity="0.12" />
      <stop offset="100%" stop-color="#DECFC0" stop-opacity="0" />
    </linearGradient>

    <!-- Right Flank Ambient Shadow -->
    <linearGradient id="rWingShadow" x1="0%" y1="20%" x2="100%" y2="80%">
      <stop offset="0%" stop-color="#D4C2B0" stop-opacity="0.0" />
      <stop offset="45%" stop-color="#A8927E" stop-opacity="0.30" />
      <stop offset="100%" stop-color="#6B5442" stop-opacity="0.65" />
    </linearGradient>

    <!-- Left Amber Iris -->
    <radialGradient id="amberEyeL" cx="35%" cy="75%" r="70%">
      <stop offset="0%" stop-color="#FFE875" />
      <stop offset="25%" stop-color="#F2B52E" />
      <stop offset="55%" stop-color="#A8620D" />
      <stop offset="85%" stop-color="#451E04" />
      <stop offset="100%" stop-color="#1C0A01" />
    </radialGradient>

    <!-- Right Amber Iris -->
    <radialGradient id="amberEyeR" cx="65%" cy="75%" r="70%">
      <stop offset="0%" stop-color="#FCDA60" />
      <stop offset="25%" stop-color="#DEA124" />
      <stop offset="55%" stop-color="#96520A" />
      <stop offset="85%" stop-color="#3A1803" />
      <stop offset="100%" stop-color="#160801" />
    </radialGradient>

    <!-- Pupil -->
    <radialGradient id="pupilGrad" cx="45%" cy="45%" r="55%">
      <stop offset="0%" stop-color="#150802" />
      <stop offset="65%" stop-color="#381B05" />
      <stop offset="100%" stop-color="#5E310E" />
    </radialGradient>

    <!-- Left Porcelain Eyelid Hood -->
    <linearGradient id="eyelidHoodL" x1="50%" y1="0%" x2="50%" y2="100%">
      <stop offset="0%" stop-color="#FFF9F4" />
      <stop offset="55%" stop-color="#F4E7DC" />
      <stop offset="85%" stop-color="#DCBEA8" />
      <stop offset="100%" stop-color="#70441D" />
    </linearGradient>

    <!-- Right Porcelain Eyelid Hood (In soft warm shadow) -->
    <linearGradient id="eyelidHoodR" x1="50%" y1="0%" x2="50%" y2="100%">
      <stop offset="0%" stop-color="#EFE0D2" />
      <stop offset="55%" stop-color="#DCBEAA" />
      <stop offset="85%" stop-color="#BF9E88" />
      <stop offset="100%" stop-color="#5E3615" />
    </linearGradient>

    <!-- Eyelid Cast Shadow on Eyeball -->
    <linearGradient id="eyeShadow" x1="50%" y1="0%" x2="50%" y2="100%">
      <stop offset="0%" stop-color="#120601" stop-opacity="0.80" />
      <stop offset="60%" stop-color="#3A1A04" stop-opacity="0.45" />
      <stop offset="100%" stop-color="#7C3B07" stop-opacity="0" />
    </linearGradient>

    <!-- Seamless Porcelain Beak Gradient -->
    <linearGradient id="beakGrad" x1="30%" y1="0%" x2="70%" y2="100%">
      <stop offset="0%" stop-color="#F2E4D6" />
      <stop offset="35%" stop-color="#D7BFAF" />
      <stop offset="70%" stop-color="#A88E77" />
      <stop offset="100%" stop-color="#78604C" />
    </linearGradient>

    <!-- Soft Under-Beak Ambient Shadow -->
    <radialGradient id="beakTipShadow" cx="50%" cy="50%" r="50%">
      <stop offset="0%" stop-color="#6B503D" stop-opacity="0.45" />
      <stop offset="60%" stop-color="#6B503D" stop-opacity="0.18" />
      <stop offset="100%" stop-color="#6B503D" stop-opacity="0" />
    </radialGradient>

    <!-- Soft Right Orbit Shadow -->
    <radialGradient id="rightOrbitShadow" cx="50%" cy="50%" r="50%">
      <stop offset="0%" stop-color="#806856" stop-opacity="0.30" />
      <stop offset="65%" stop-color="#806856" stop-opacity="0.12" />
      <stop offset="100%" stop-color="#806856" stop-opacity="0" />
    </radialGradient>

    <!-- Individual Toe Gradients -->
    <linearGradient id="lToe1" x1="20%" y1="0%" x2="80%" y2="100%">
      <stop offset="0%" stop-color="#D9C7B6" />
      <stop offset="50%" stop-color="#A5907D" />
      <stop offset="100%" stop-color="#5C4736" />
    </linearGradient>
    <linearGradient id="lToe2" x1="30%" y1="0%" x2="70%" y2="100%">
      <stop offset="0%" stop-color="#E8DBD0" />
      <stop offset="50%" stop-color="#B29E8C" />
      <stop offset="100%" stop-color="#644E3C" />
    </linearGradient>
    <linearGradient id="lToe3" x1="30%" y1="0%" x2="70%" y2="100%">
      <stop offset="0%" stop-color="#CEBEAE" />
      <stop offset="50%" stop-color="#9C8775" />
      <stop offset="100%" stop-color="#564232" />
    </linearGradient>

    <linearGradient id="rToe1" x1="30%" y1="0%" x2="70%" y2="100%">
      <stop offset="0%" stop-color="#BCA794" />
      <stop offset="50%" stop-color="#8F7A68" />
      <stop offset="100%" stop-color="#4C3A2A" />
    </linearGradient>
    <linearGradient id="rToe2" x1="30%" y1="0%" x2="70%" y2="100%">
      <stop offset="0%" stop-color="#C7B3A1" />
      <stop offset="50%" stop-color="#988472" />
      <stop offset="100%" stop-color="#523F2E" />
    </linearGradient>
    <linearGradient id="rToe3" x1="30%" y1="0%" x2="70%" y2="100%">
      <stop offset="0%" stop-color="#B39E8C" />
      <stop offset="50%" stop-color="#867261" />
      <stop offset="100%" stop-color="#463426" />
    </linearGradient>
  </defs>

  <!-- 1. Master Base Silhouette Capsule -->
  <path d="M 272 40 L 237 40 L 216 44 L 207 48 L 201 49 L 185 57 L 168 69 L 155 82 L 147 94 L 145 95 L 132 119 L 126 134 L 124 145 L 120 155 L 120 162 L 116 174 L 115 183 L 103 194 L 95 213 L 92 231 L 90 235 L 90 246 L 88 255 L 87 271 L 90 314 L 96 339 L 105 359 L 109 363 L 110 366 L 119 374 L 127 377 L 132 382 L 144 400 L 151 407 L 168 421 L 186 430 L 192 437 L 188 451 L 183 459 L 178 462 L 164 465 L 158 470 L 155 479 L 157 485 L 160 488 L 169 489 L 176 485 L 180 485 L 186 489 L 198 489 L 206 485 L 214 485 L 220 489 L 224 489 L 231 486 L 233 482 L 231 469 L 221 461 L 217 451 L 218 445 L 224 441 L 242 443 L 293 441 L 297 446 L 297 455 L 293 461 L 283 470 L 280 476 L 280 484 L 283 488 L 293 489 L 300 485 L 308 485 L 314 489 L 324 489 L 329 485 L 337 485 L 340 487 L 349 488 L 352 487 L 356 483 L 356 474 L 351 466 L 338 462 L 329 456 L 323 442 L 323 434 L 327 429 L 334 427 L 337 424 L 344 421 L 356 411 L 372 395 L 380 382 L 385 377 L 391 376 L 397 373 L 404 366 L 407 358 L 411 353 L 411 350 L 416 339 L 416 334 L 421 317 L 424 290 L 424 260 L 420 228 L 416 217 L 416 213 L 409 197 L 409 194 L 396 183 L 392 166 L 391 155 L 389 152 L 385 135 L 382 130 L 379 120 L 364 93 L 347 73 L 331 60 L 311 50 L 305 49 L 293 44 L 277 42 Z" fill="url(#bodyGrad)" />

  <!-- 2. Clipped Body 3D Volume Layers -->
  <g clip-path="url(#bodyClip)">
    <!-- Cranial Specular Dome -->
    <ellipse cx="215" cy="85" rx="95" ry="65" fill="url(#cranialHl)" />

    <!-- Upper Right Head Shadow -->
    <ellipse cx="340" cy="95" rx="90" ry="70" fill="url(#headRightShadow)" />

    <!-- Breast / Chest Soft Illumination -->
    <ellipse cx="244" cy="270" rx="115" ry="88" fill="url(#chestHl)" />

    <!-- Left Wing Lateral Highlight -->
    <path d="M 88 180 C 88 180, 115 190, 118 270 C 120 340, 95 380, 95 380 C 86 340, 86 230, 88 180 Z" fill="url(#lWingGrad)" />
    <!-- Left Wing Furrow / Separation Line -->
    <path d="M 125 185 C 135 225, 138 280, 130 355 C 128 370, 122 385, 118 395" stroke="#B8A492" stroke-width="2.5" stroke-linecap="round" opacity="0.30" fill="none" />

    <!-- Right Flank Ambient Occlusion -->
    <path d="M 330 180 C 375 210, 424 265, 420 345 C 416 385, 375 420, 345 425 C 380 395, 385 300, 345 200 Z" fill="url(#rWingShadow)" />
    <!-- Right Wing Furrow -->
    <path d="M 368 185 C 362 225, 362 280, 368 355 C 370 370, 375 385, 380 395" stroke="#66503E" stroke-width="3" stroke-linecap="round" opacity="0.40" fill="none" />

    <!-- Lower Belly Shading Gradient -->
    <ellipse cx="254" cy="405" rx="85" ry="30" fill="#755F4E" opacity="0.25" />
    <ellipse cx="256" cy="442" rx="65" ry="18" fill="#523D2C" opacity="0.35" />

    <!-- Feet 3D Modeling -->
    <!-- Left Leg Ankle & Stem -->
    <path d="M 191 435 C 191 445, 185 455, 180 462 L 225 462 C 220 455, 218 445, 221 435 Z" fill="url(#lToe2)" />
    <!-- Left Foot 3 Bulbous Toes -->
    <path d="M 155 479 L 157 485 L 160 488 L 169 489 L 176 485 L 180 485 L 178 462 L 171 464 L 162 466 L 158 470 Z" fill="url(#lToe1)" />
    <path d="M 180 485 L 186 489 L 198 489 L 206 485 L 208 456 L 195 452 L 185 457 L 178 462 Z" fill="url(#lToe2)" />
    <path d="M 206 485 L 214 485 L 220 489 L 228 488 L 231 486 L 233 482 L 231 469 L 227 465 L 219 458 L 208 460 Z" fill="url(#lToe3)" />
    <!-- Left Toe Knuckles / Highlights -->
    <ellipse cx="168" cy="477" rx="6" ry="3.5" fill="#FFFFFF" opacity="0.22" />
    <ellipse cx="196" cy="470" rx="7" ry="4" fill="#FFFFFF" opacity="0.26" />
    <ellipse cx="221" cy="477" rx="6" ry="3.5" fill="#FFFFFF" opacity="0.20" />
    <!-- Left Toe Crevices -->
    <path d="M 179 462 C 179 472, 178 482, 178 488" stroke="#3D2919" stroke-width="2.5" stroke-linecap="round" />
    <path d="M 208 460 C 208 470, 209 480, 209 488" stroke="#3D2919" stroke-width="2.5" stroke-linecap="round" />
    <!-- Left Foot Contact Baseline Shadows -->
    <ellipse cx="165" cy="488" rx="8" ry="2.0" fill="#1C1006" opacity="0.80" />
    <ellipse cx="196" cy="489" rx="12" ry="2.5" fill="#1C1006" opacity="0.90" />
    <ellipse cx="225" cy="488" rx="8" ry="2.0" fill="#1C1006" opacity="0.80" />

    <!-- Right Leg Ankle & Stem -->
    <path d="M 297 435 C 297 445, 290 455, 285 462 L 330 462 C 326 455, 323 445, 323 435 Z" fill="url(#rToe2)" />
    <!-- Right Foot 3 Bulbous Toes -->
    <path d="M 283 470 L 280 476 L 280 484 L 283 488 L 293 489 L 300 485 L 297 455 L 290 462 Z" fill="url(#rToe1)" />
    <path d="M 300 485 L 308 485 L 314 489 L 324 489 L 329 485 L 330 455 L 315 452 L 302 458 Z" fill="url(#rToe2)" />
    <path d="M 329 485 L 337 485 L 340 487 L 349 488 L 352 487 L 356 483 L 356 474 L 351 466 L 338 462 L 330 460 Z" fill="url(#rToe3)" />
    <!-- Right Toe Knuckles -->
    <ellipse cx="292" cy="477" rx="6" ry="3.5" fill="#FFFFFF" opacity="0.12" />
    <ellipse cx="316" cy="470" rx="7" ry="4" fill="#FFFFFF" opacity="0.15" />
    <ellipse cx="342" cy="477" rx="6" ry="3.5" fill="#FFFFFF" opacity="0.10" />
    <!-- Right Toe Crevices -->
    <path d="M 302 462 C 302 472, 303 482, 303 488" stroke="#2D1D11" stroke-width="2.5" stroke-linecap="round" />
    <path d="M 330 462 C 330 472, 330 482, 330 488" stroke="#2D1D11" stroke-width="2.5" stroke-linecap="round" />
    <!-- Right Foot Contact Baseline Shadows -->
    <ellipse cx="292" cy="488" rx="8" ry="2.0" fill="#150C05" opacity="0.80" />
    <ellipse cx="318" cy="489" rx="12" ry="2.5" fill="#150C05" opacity="0.90" />
    <ellipse cx="345" cy="488" rx="8" ry="2.0" fill="#150C05" opacity="0.80" />
  </g>

  <!-- 3. Facial Depressions & Shading (Smooth radial falloffs) -->
  <!-- Inner Right Orbit Wall / Right Beak Flank Soft Shadow -->
  <ellipse cx="272" cy="165" rx="22" ry="26" fill="url(#rightOrbitShadow)" />

  <!-- 4. Sleepy Hooded Glassy Amber Eyes -->
  <!-- Left Eye -->
  <g id="left_eye">
    <!-- Amber Iris (Exact Half-Moon Aperture) -->
    <path d="M 169 142 L 167 150 L 169 163 L 174 171 L 180 176 L 185 178 L 199 179 L 206 176 L 214 170 L 219 164 L 223 156 L 224 148 L 215 143 L 190 139 L 177 140 Z" fill="url(#amberEyeL)" />
    <!-- Pupil centered in lower iris -->
    <ellipse cx="195" cy="161" rx="10" ry="8.0" fill="url(#pupilGrad)" />
    <!-- Golden Amber Inner Glow Arc -->
    <path d="M 176 168 C 184 176, 206 176, 214 168" stroke="#FFE275" stroke-width="2.2" stroke-linecap="round" opacity="0.80" fill="none" />
    <!-- Eyelid Cast Shadow on eyeball -->
    <path d="M 169 142 L 177 140 L 190 139 L 215 143 L 224 148 L 223 154 L 190 148 L 168 149 Z" fill="url(#eyeShadow)" />
    <!-- Specular Reflection Glint -->
    <ellipse cx="180" cy="164" rx="3.2" ry="2.2" fill="#FFF0C2" opacity="0.95" />
    <circle cx="180" cy="164" r="1.4" fill="#FFFFFF" opacity="0.95" />
    <!-- Porcelain Upper Eyelid Hood (Round Arched Dome) -->
    <path d="M 166 142 C 168 112, 218 112, 224 148 L 215 143 L 190 139 L 177 140 Z" fill="url(#eyelidHoodL)" />
  </g>

  <!-- Right Eye -->
  <g id="right_eye">
    <!-- Amber Iris -->
    <path d="M 282 144 L 279 146 L 280 155 L 282 162 L 292 174 L 294 174 L 303 179 L 316 180 L 327 176 L 337 166 L 340 151 L 339 145 L 334 141 L 313 139 L 296 141 Z" fill="url(#amberEyeR)" />
    <!-- Pupil centered in lower iris -->
    <ellipse cx="312" cy="161" rx="10" ry="8.0" fill="url(#pupilGrad)" />
    <!-- Golden Amber Inner Glow Arc -->
    <path d="M 294 168 C 302 176, 322 176, 330 168" stroke="#FCD65C" stroke-width="2.2" stroke-linecap="round" opacity="0.70" fill="none" />
    <!-- Eyelid Cast Shadow -->
    <path d="M 285 145 L 296 141 L 313 139 L 334 141 L 339 145 L 338 152 L 313 148 L 284 152 Z" fill="url(#eyeShadow)" />
    <!-- Specular Reflection Glint -->
    <ellipse cx="298" cy="164" rx="2.8" ry="2.0" fill="#FFE8AA" opacity="0.85" />
    <circle cx="298" cy="164" r="1.2" fill="#FFFFFF" opacity="0.90" />
    <!-- Porcelain Upper Eyelid Hood -->
    <path d="M 284 144 C 286 112, 336 112, 340 145 L 334 141 L 313 139 L 296 141 Z" fill="url(#eyelidHoodR)" />
  </g>

  <!-- 5. Seamless Rounded Porcelain Beak Droplet (Zero Stroke) -->
  <g id="beak">
    <!-- Cast Shadow beneath beak tip onto breast -->
    <ellipse cx="254" cy="216" rx="18" ry="10" fill="url(#beakTipShadow)" />
    <!-- Beak Body Teardrop/Cone -->
    <path d="M 254 162 C 247 172, 241 185, 242 196 C 243 206, 247 215, 254 215 C 261 215, 265 206, 266 196 C 267 185, 261 172, 254 162 Z" fill="url(#beakGrad)" />
    <!-- Beak Longitudinal Highlight Ridge -->
    <path d="M 254 164 C 255 178, 255 198, 254 211" stroke="#FFFFFF" stroke-width="1.2" stroke-linecap="round" opacity="0.30" fill="none" />
  </g>
</svg>