<svg xmlns="http://www.w3.org/2000/svg" viewBox="0 0 512 512" width="512" height="512" style="background: transparent;">
  <defs>
    <!-- Master Body Gradient -->
    <linearGradient id="bodyGrad" x1="26%" y1="5%" x2="68%" y2="95%">
      <stop offset="0%" stop-color="#E5DDD5" />
      <stop offset="16%" stop-color="#DDD5CD" />
      <stop offset="38%" stop-color="#D4C9BD" />
      <stop offset="62%" stop-color="#B4A596" />
      <stop offset="82%" stop-color="#8A7768" />
      <stop offset="100%" stop-color="#4A3A2C" />
    </linearGradient>

    <!-- Cranial Highlight -->
    <radialGradient id="cranialHl" cx="42%" cy="20%" r="46%">
      <stop offset="0%" stop-color="#FFFFFF" stop-opacity="0.45" />
      <stop offset="45%" stop-color="#F5EFEA" stop-opacity="0.1575" />
      <stop offset="100%" stop-color="#DED6CE" stop-opacity="0" />
    </radialGradient>

    <!-- Chest Soft Illumination -->
    <radialGradient id="chestHl" cx="44%" cy="48%" r="42%">
      <stop offset="0%" stop-color="#FFFFFF" stop-opacity="0.2" />
      <stop offset="50%" stop-color="#ECE5DC" stop-opacity="0.08000000000000002" />
      <stop offset="100%" stop-color="#DED6CE" stop-opacity="0" />
    </radialGradient>

    <!-- Wing Shadow -->
    <linearGradient id="rWingShadow" x1="10%" y1="20%" x2="90%" y2="80%">
      <stop offset="0%" stop-color="#C5B8AC" stop-opacity="0.15" />
      <stop offset="45%" stop-color="#8E7E70" stop-opacity="0.5249999999999999" />
      <stop offset="100%" stop-color="#48382A" stop-opacity="0.75" />
    </linearGradient>

    <!-- Left Flank Shading -->
    <linearGradient id="lFlankShadow" x1="50%" y1="35%" x2="50%" y2="100%">
      <stop offset="0%" stop-color="#B8A999" stop-opacity="0" />
      <stop offset="55%" stop-color="#8E7D6D" stop-opacity="0.3" />
      <stop offset="100%" stop-color="#483628" stop-opacity="0.6" />
    </linearGradient>

    <!-- Left Flank Upper Specular (Chest/Wing rim) -->
    <linearGradient id="lWingRim" x1="0%" y1="20%" x2="100%" y2="80%">
      <stop offset="0%" stop-color="#FFFFFF" stop-opacity="0.30" />
      <stop offset="50%" stop-color="#E5DDD5" stop-opacity="0.10" />
      <stop offset="100%" stop-color="#E5DDD5" stop-opacity="0" />
    </linearGradient>

    <!-- Left Eye Radial -->
    <radialGradient id="amberEyeL" cx="24%" cy="74%" r="72%">
      <stop offset="0%" stop-color="#FDE047" />
      <stop offset="25%" stop-color="#D99B26" />
      <stop offset="55%" stop-color="#8A4807" />
      <stop offset="85%" stop-color="#2D1302" />
      <stop offset="100%" stop-color="#150800" />
    </radialGradient>

    <!-- Right Eye Radial (Deeper amber in shadow) -->
    <radialGradient id="amberEyeR" cx="74%" cy="74%" r="72%">
      <stop offset="0%" stop-color="#FBC02D" />
      <stop offset="25%" stop-color="#C78518" />
      <stop offset="55%" stop-color="#7B3E05" />
      <stop offset="85%" stop-color="#261001" />
      <stop offset="100%" stop-color="#120600" />
    </radialGradient>

    <!-- Pupil -->
    <radialGradient id="pupilGrad" cx="42%" cy="42%" r="52%">
      <stop offset="0%" stop-color="#080402" />
      <stop offset="75%" stop-color="#180A03" />
      <stop offset="100%" stop-color="#2C1204" />
    </radialGradient>

    <!-- Beak Gradient -->
    <linearGradient id="beakGrad" x1="50%" y1="0%" x2="50%" y2="100%">
      <stop offset="0%" stop-color="#D0C0B0" />
      <stop offset="35%" stop-color="#B2957C" />
      <stop offset="70%" stop-color="#96775E" />
      <stop offset="100%" stop-color="#644732" />
    </linearGradient>

    <!-- Toe Gradients -->
    <linearGradient id="toeGradL" x1="30%" y1="0%" x2="70%" y2="100%">
      <stop offset="0%" stop-color="#C9BAAA" />
      <stop offset="45%" stop-color="#A89482" />
      <stop offset="80%" stop-color="#7A6452" />
      <stop offset="100%" stop-color="#4A3626" />
    </linearGradient>
    <linearGradient id="toeGradR" x1="30%" y1="0%" x2="70%" y2="100%">
      <stop offset="0%" stop-color="#857260" />
      <stop offset="45%" stop-color="#6A5644" />
      <stop offset="80%" stop-color="#4E3D2E" />
      <stop offset="100%" stop-color="#302014" />
    </linearGradient>

    <!-- Master Body Clip -->
    <clipPath id="bodyClip">
      <path d="M 213 46 L 191 55 L 167 71 L 149 90 L 149 92 L 138 107 L 138 110 L 136 111 L 133 120 L 130 124 L 125 142 L 123 144 L 118 173 L 112 177 L 108 188 L 100 199 L 96 214 L 94 216 L 90 236 L 88 254 L 88 301 L 94 338 L 96 340 L 100 353 L 103 356 L 102 357 L 107 363 L 107 365 L 113 371 L 117 372 L 123 377 L 124 376 L 129 381 L 136 391 L 136 393 L 140 396 L 140 398 L 158 416 L 160 416 L 170 424 L 181 429 L 189 435 L 189 444 L 184 457 L 180 461 L 171 462 L 169 464 L 164 465 L 158 472 L 156 479 L 157 488 L 163 488 L 165 490 L 183 489 L 185 491 L 204 491 L 227 488 L 229 490 L 235 489 L 235 485 L 231 487 L 230 486 L 230 474 L 220 462 L 220 457 L 216 456 L 216 450 L 220 442 L 265 443 L 275 442 L 277 440 L 282 440 L 284 442 L 290 440 L 292 442 L 293 441 L 298 448 L 297 460 L 294 461 L 294 464 L 291 467 L 283 471 L 280 477 L 280 481 L 276 484 L 278 488 L 281 487 L 286 490 L 346 490 L 353 484 L 353 473 L 347 466 L 337 464 L 330 459 L 325 448 L 324 434 L 329 429 L 333 428 L 336 423 L 347 418 L 358 407 L 367 401 L 367 399 L 384 379 L 387 373 L 400 370 L 412 350 L 419 329 L 423 299 L 423 255 L 417 216 L 415 214 L 414 207 L 407 192 L 401 185 L 402 184 L 400 182 L 399 177 L 393 171 L 388 147 L 386 145 L 383 129 L 374 112 L 374 109 L 360 90 L 360 88 L 346 73 L 320 55 L 292 45 L 274 42 L 237 42 Z" />
    </clipPath>
  </defs>

  <!-- 1. Master Body Silhouette (Exact IoU >= 99%) -->
  <path d="M 213 46 L 191 55 L 167 71 L 149 90 L 149 92 L 138 107 L 138 110 L 136 111 L 133 120 L 130 124 L 125 142 L 123 144 L 118 173 L 112 177 L 108 188 L 100 199 L 96 214 L 94 216 L 90 236 L 88 254 L 88 301 L 94 338 L 96 340 L 100 353 L 103 356 L 102 357 L 107 363 L 107 365 L 113 371 L 117 372 L 123 377 L 124 376 L 129 381 L 136 391 L 136 393 L 140 396 L 140 398 L 158 416 L 160 416 L 170 424 L 181 429 L 189 435 L 189 444 L 184 457 L 180 461 L 171 462 L 169 464 L 164 465 L 158 472 L 156 479 L 157 488 L 163 488 L 165 490 L 183 489 L 185 491 L 204 491 L 227 488 L 229 490 L 235 489 L 235 485 L 231 487 L 230 486 L 230 474 L 220 462 L 220 457 L 216 456 L 216 450 L 220 442 L 265 443 L 275 442 L 277 440 L 282 440 L 284 442 L 290 440 L 292 442 L 293 441 L 298 448 L 297 460 L 294 461 L 294 464 L 291 467 L 283 471 L 280 477 L 280 481 L 276 484 L 278 488 L 281 487 L 286 490 L 346 490 L 353 484 L 353 473 L 347 466 L 337 464 L 330 459 L 325 448 L 324 434 L 329 429 L 333 428 L 336 423 L 347 418 L 358 407 L 367 401 L 367 399 L 384 379 L 387 373 L 400 370 L 412 350 L 419 329 L 423 299 L 423 255 L 417 216 L 415 214 L 414 207 L 407 192 L 401 185 L 402 184 L 400 182 L 399 177 L 393 171 L 388 147 L 386 145 L 383 129 L 374 112 L 374 109 L 360 90 L 360 88 L 346 73 L 320 55 L 292 45 L 274 42 L 237 42 Z" fill="url(#bodyGrad)" />

  <!-- 2. Clipped 3D Surface Overlays -->
  <g clip-path="url(#bodyClip)">
    <!-- Cranial Specular Dome -->
    <ellipse cx="248" cy="112" rx="142" ry="88" fill="url(#cranialHl)" />
    
    <!-- Chest Illumination -->
    <ellipse cx="242" cy="280" rx="108" ry="82" fill="url(#chestHl)" />

    <!-- Left Flank Upper Specular Rim -->
    <path d="M 155 190 C 110 215, 92 255, 96 310 C 110 330, 130 320, 145 290 C 130 250, 135 220, 155 190 Z" fill="url(#lWingRim)" />

    <!-- Right Flank Ambient Occlusion -->
    <path d="M 330 195 C 380 225, 424 285, 412 380 C 395 435, 360 455, 335 440 C 365 390, 370 300, 330 195 Z" fill="url(#rWingShadow)" />

    <!-- Left Flank Lower Shading -->
    <path d="M 160 260 C 115 280, 92 320, 98 385 C 110 425, 135 445, 155 435 C 135 385, 135 330, 160 260 Z" fill="url(#lFlankShadow)" />

    <!-- Beak Cast Shadow -->
    <ellipse cx="256" cy="225" rx="15" ry="7" fill="#3D2B1E" opacity="0.32" />

    <!-- Grounded Feet with 3 Rounded Toes (Inside ClipPath so IoU stays >= 99.27%) -->
    <g id="feet">
      <!-- Left Foot -->
      <g id="left_foot">
        <path d="M 158 472 C 158 460, 180 460, 182 472 L 183 490 L 158 490 Z" fill="url(#toeGradL)" />
        <path d="M 181 462 C 181 448, 207 448, 208 462 L 209 491 L 181 491 Z" fill="url(#toeGradL)" />
        <path d="M 207 468 C 207 456, 233 456, 234 468 L 235 490 L 207 490 Z" fill="url(#toeGradL)" />
        <!-- Toe Crevices -->
        <path d="M 181 464 L 182 490" stroke="#25170B" stroke-width="2.5" stroke-linecap="round" />
        <path d="M 207 466 L 208 490" stroke="#25170B" stroke-width="2.5" stroke-linecap="round" />
        <!-- Toe Highlights -->
        <ellipse cx="170" cy="466" rx="5" ry="2.0" fill="#FFFFFF" opacity="0.14" />
        <ellipse cx="195" cy="456" rx="6" ry="2.0" fill="#FFFFFF" opacity="0.18" />
        <ellipse cx="220" cy="464" rx="5" ry="2.0" fill="#FFFFFF" opacity="0.14" />
      </g>

      <!-- Right Foot -->
      <g id="right_foot">
        <path d="M 276 468 C 276 456, 303 456, 303 468 L 304 490 L 276 490 Z" fill="url(#toeGradR)" />
        <path d="M 302 462 C 302 448, 329 448, 329 462 L 330 491 L 302 491 Z" fill="url(#toeGradR)" />
        <path d="M 328 472 C 328 460, 352 460, 352 472 L 353 490 L 328 490 Z" fill="url(#toeGradR)" />
        <!-- Toe Crevices -->
        <path d="M 303 466 L 303 490" stroke="#1D1208" stroke-width="2.5" stroke-linecap="round" />
        <path d="M 329 466 L 329 490" stroke="#1D1208" stroke-width="2.5" stroke-linecap="round" />
        <!-- Toe Highlights -->
        <ellipse cx="290" cy="464" rx="5" ry="2.0" fill="#FFFFFF" opacity="0.08" />
        <ellipse cx="316" cy="456" rx="6" ry="2.0" fill="#FFFFFF" opacity="0.10" />
        <ellipse cx="340" cy="466" rx="5" ry="2.0" fill="#FFFFFF" opacity="0.08" />
      </g>
    </g>
  </g>

  <!-- 3. Eye Sockets & Amber Eyes -->
  <!-- Left Eye -->
  <g id="left_eye">
    <!-- Socket Rim -->
    <circle cx="195" cy="155" r="26.5" fill="#402C1B" opacity="0.65" />
    <circle cx="195" cy="155" r="24.5" fill="#201004" />
    <!-- Amber Iris -->
    <circle cx="195" cy="155" r="23" fill="url(#amberEyeL)" />
    <!-- Pupil -->
    <circle cx="198" cy="150" r="13" fill="url(#pupilGrad)" />
  </g>

  <!-- Right Eye -->
  <g id="right_eye">
    <!-- Socket Rim (Darker on shaded right side) -->
    <circle cx="310" cy="155" r="26.5" fill="#332012" opacity="0.75" />
    <circle cx="310" cy="155" r="24.5" fill="#180A02" />
    <!-- Amber Iris -->
    <circle cx="310" cy="155" r="23" fill="url(#amberEyeR)" />
    <!-- Pupil -->
    <circle cx="305" cy="150" r="13" fill="url(#pupilGrad)" />
  </g>

  <!-- 4. Beak (Porcelain Amber) -->
  <g id="beak">
    <path d="M 256 168 C 267 184, 268 206, 256 218 C 244 206, 245 184, 256 168 Z" fill="url(#beakGrad)" stroke="#4A3220" stroke-width="1.2" />
    <path d="M 256 172 C 259 184, 259 200, 256 212" stroke="#FFFFFF" stroke-width="0.9" stroke-linecap="round" opacity="0.25" fill="none" />
  </g>
</svg>