<svg xmlns="http://www.w3.org/2000/svg" viewBox="0 0 512 512" width="512" height="512" style="background: transparent;">
  <defs>
    <!-- Master Body Gradient -->
    <linearGradient id="bodyGrad" x1="32%" y1="5%" x2="62%" y2="88%">
      <stop offset="0%" stop-color="#E8E0D8" />
      <stop offset="16%" stop-color="#DDD5CD" />
      <stop offset="38%" stop-color="#DFD5CB" />
      <stop offset="60%" stop-color="#C8BCB1" />
      <stop offset="82%" stop-color="#A59587" />
      <stop offset="100%" stop-color="#726052" />
    </linearGradient>

    <!-- Cranial Highlight -->
    <radialGradient id="cranialHl" cx="38%" cy="16%" r="35%">
      <stop offset="0%" stop-color="#FFF2E6" stop-opacity="0.50" />
      <stop offset="50%" stop-color="#F5EFEA" stop-opacity="0.18" />
      <stop offset="100%" stop-color="#DED6CE" stop-opacity="0" />
    </radialGradient>

    <!-- Chest Soft Illumination -->
    <radialGradient id="chestHl" cx="42%" cy="45%" r="48%">
      <stop offset="0%" stop-color="#FFF5EC" stop-opacity="0.38" />
      <stop offset="55%" stop-color="#F2E6DC" stop-opacity="0.15" />
      <stop offset="100%" stop-color="#DED6CE" stop-opacity="0" />
    </radialGradient>

    <!-- Wing Shadow -->
    <linearGradient id="rWingShadow" x1="10%" y1="20%" x2="90%" y2="80%">
      <stop offset="0%" stop-color="#C5B8AC" stop-opacity="0.10" />
      <stop offset="45%" stop-color="#9E8E80" stop-opacity="0.30" />
      <stop offset="100%" stop-color="#706050" stop-opacity="0.35" />
    </linearGradient>

    <!-- Left Flank Shading -->
    <linearGradient id="lFlankShadow" x1="50%" y1="35%" x2="50%" y2="100%">
      <stop offset="0%" stop-color="#B8A999" stop-opacity="0" />
      <stop offset="55%" stop-color="#8E7D6D" stop-opacity="0.25" />
      <stop offset="100%" stop-color="#554234" stop-opacity="0.55" />
    </linearGradient>

    <!-- Left Flank Upper Specular -->
    <linearGradient id="lWingRim" x1="0%" y1="20%" x2="100%" y2="80%">
      <stop offset="0%" stop-color="#FFFFFF" stop-opacity="0.30" />
      <stop offset="50%" stop-color="#E5DDD5" stop-opacity="0.10" />
      <stop offset="100%" stop-color="#E5DDD5" stop-opacity="0" />
    </linearGradient>

    <!-- Cheek Radial Highlights -->
    <radialGradient id="leftCheekGlow" cx="45%" cy="45%" r="50%">
      <stop offset="0%" stop-color="#FFF4E8" stop-opacity="0.55" />
      <stop offset="60%" stop-color="#F5E8DC" stop-opacity="0.25" />
      <stop offset="100%" stop-color="#E8DDD5" stop-opacity="0" />
    </radialGradient>

    <radialGradient id="rightCheekGlow" cx="50%" cy="45%" r="50%">
      <stop offset="0%" stop-color="#FFE8D2" stop-opacity="0.30" />
      <stop offset="60%" stop-color="#F0DDD0" stop-opacity="0.10" />
      <stop offset="100%" stop-color="#E8DDD5" stop-opacity="0" />
    </radialGradient>

    <!-- Left Eye Radial -->
    <radialGradient id="amberEyeL" cx="20%" cy="80%" r="75%">
      <stop offset="0%" stop-color="#FDE047" />
      <stop offset="25%" stop-color="#D99B26" />
      <stop offset="55%" stop-color="#8A4807" />
      <stop offset="85%" stop-color="#2D1302" />
      <stop offset="100%" stop-color="#150800" />
    </radialGradient>

    <!-- Right Eye Radial -->
    <radialGradient id="amberEyeR" cx="82%" cy="78%" r="75%">
      <stop offset="0%" stop-color="#FFD54F" />
      <stop offset="25%" stop-color="#FFA000" />
      <stop offset="55%" stop-color="#B26A00" />
      <stop offset="82%" stop-color="#3E1C02" />
      <stop offset="100%" stop-color="#180A02" />
    </radialGradient>

    <!-- Pupil -->
    <radialGradient id="pupilGrad" cx="45%" cy="40%" r="55%">
      <stop offset="0%" stop-color="#24140A" />
      <stop offset="70%" stop-color="#352014" />
      <stop offset="100%" stop-color="#462C1C" />
    </radialGradient>

    <!-- Beak Gradient -->
    <linearGradient id="beakGrad" x1="50%" y1="0%" x2="50%" y2="100%">
      <stop offset="0%" stop-color="#D0C0B0" />
      <stop offset="35%" stop-color="#B2957C" />
      <stop offset="70%" stop-color="#96775E" />
      <stop offset="100%" stop-color="#644732" />
    </linearGradient>

    <!-- Master Body Clip -->
    <clipPath id="bodyClip">
      <path d="M 213 46 L 191 55 L 167 71 L 149 90 L 149 92 L 138 107 L 138 110 L 136 111 L 133 120 L 130 124 L 125 142 L 123 144 L 118 173 L 112 177 L 108 188 L 100 199 L 96 214 L 94 216 L 90 236 L 88 254 L 88 301 L 94 338 L 96 340 L 100 353 L 103 356 L 102 357 L 107 363 L 107 365 L 113 371 L 117 372 L 123 377 L 124 376 L 129 381 L 136 391 L 136 393 L 140 396 L 140 398 L 158 416 L 160 416 L 170 424 L 181 429 L 189 435 L 189 444 L 184 457 L 180 461 L 171 462 L 169 464 L 164 465 L 158 472 L 156 479 L 157 488 L 163 488 L 165 490 L 183 489 L 185 491 L 204 491 L 227 488 L 229 490 L 235 489 L 235 485 L 231 487 L 230 486 L 230 474 L 220 462 L 220 457 L 216 456 L 216 450 L 220 442 L 265 443 L 275 442 L 277 440 L 282 440 L 284 442 L 290 440 L 292 442 L 293 441 L 298 448 L 297 460 L 294 461 L 294 464 L 291 467 L 283 471 L 280 477 L 280 481 L 276 484 L 278 488 L 281 487 L 286 490 L 346 490 L 353 484 L 353 473 L 347 466 L 337 464 L 330 459 L 325 448 L 324 434 L 329 429 L 333 428 L 336 423 L 347 418 L 358 407 L 367 401 L 367 399 L 384 379 L 387 373 L 400 370 L 412 350 L 419 329 L 423 299 L 423 255 L 417 216 L 415 214 L 414 207 L 407 192 L 401 185 L 402 184 L 400 182 L 399 177 L 393 171 L 388 147 L 386 145 L 383 129 L 374 112 L 374 109 L 360 90 L 360 88 L 346 73 L 320 55 L 292 45 L 274 42 L 237 42 Z" />
    </clipPath>
  
    <!-- Right Head / Brow Ambient Shadow -->
    <linearGradient id="rHeadShadow" x1="0%" y1="20%" x2="100%" y2="80%">
      <stop offset="0%" stop-color="#C5B8AC" stop-opacity="0" />
      <stop offset="50%" stop-color="#8E7E70" stop-opacity="0.30" />
      <stop offset="100%" stop-color="#554436" stop-opacity="0.55" />
    </linearGradient>

  </defs>

  <!-- 1. Master Body Silhouette (Exact IoU >= 99%) -->
  <path d="M 213 46 L 191 55 L 167 71 L 149 90 L 149 92 L 138 107 L 138 110 L 136 111 L 133 120 L 130 124 L 125 142 L 123 144 L 118 173 L 112 177 L 108 188 L 100 199 L 96 214 L 94 216 L 90 236 L 88 254 L 88 301 L 94 338 L 96 340 L 100 353 L 103 356 L 102 357 L 107 363 L 107 365 L 113 371 L 117 372 L 123 377 L 124 376 L 129 381 L 136 391 L 136 393 L 140 396 L 140 398 L 158 416 L 160 416 L 170 424 L 181 429 L 189 435 L 189 444 L 184 457 L 180 461 L 171 462 L 169 464 L 164 465 L 158 472 L 156 479 L 157 488 L 163 488 L 165 490 L 183 489 L 185 491 L 204 491 L 227 488 L 229 490 L 235 489 L 235 485 L 231 487 L 230 486 L 230 474 L 220 462 L 220 457 L 216 456 L 216 450 L 220 442 L 265 443 L 275 442 L 277 440 L 282 440 L 284 442 L 290 440 L 292 442 L 293 441 L 298 448 L 297 460 L 294 461 L 294 464 L 291 467 L 283 471 L 280 477 L 280 481 L 276 484 L 278 488 L 281 487 L 286 490 L 346 490 L 353 484 L 353 473 L 347 466 L 337 464 L 330 459 L 325 448 L 324 434 L 329 429 L 333 428 L 336 423 L 347 418 L 358 407 L 367 401 L 367 399 L 384 379 L 387 373 L 400 370 L 412 350 L 419 329 L 423 299 L 423 255 L 417 216 L 415 214 L 414 207 L 407 192 L 401 185 L 402 184 L 400 182 L 399 177 L 393 171 L 388 147 L 386 145 L 383 129 L 374 112 L 374 109 L 360 90 L 360 88 L 346 73 L 320 55 L 292 45 L 274 42 L 237 42 Z" fill="url(#bodyGrad)" />

  <!-- 2. Clipped 3D Surface Overlays -->
  <g clip-path="url(#bodyClip)">
    <!-- Cranial Specular Dome -->
    <ellipse cx="225" cy="85" rx="105" ry="55" fill="url(#cranialHl)" />
    
    <!-- Chest Illumination -->
    <ellipse cx="236" cy="255" rx="125" ry="95" fill="url(#chestHl)" />

    <!-- Left Flank Upper Specular Rim -->
    <path d="M 155 190 C 110 215, 92 255, 96 310 C 110 330, 130 320, 145 290 C 130 250, 135 220, 155 190 Z" fill="url(#lWingRim)" />

    
    <!-- Right Brow & Temple Shading -->
    <path d="M 265 75 C 330 80, 395 105, 405 180 C 375 180, 330 160, 290 140 C 270 120, 260 95, 265 75 Z" fill="url(#rHeadShadow)" />

    <!-- Right Flank Ambient Occlusion -->
    <path d="M 330 195 C 380 225, 424 285, 412 380 C 395 435, 360 455, 335 440 C 365 390, 370 300, 330 195 Z" fill="url(#rWingShadow)" />

    <!-- Left Flank Lower Shading -->
    <path d="M 160 260 C 115 280, 92 320, 98 385 C 110 425, 135 445, 155 435 C 135 385, 135 330, 160 260 Z" fill="url(#lFlankShadow)" />

    <!-- Facial Cheek Volumes -->
    <ellipse cx="135" cy="160" rx="30" ry="34" fill="url(#leftCheekGlow)" />
    <ellipse cx="378" cy="158" rx="30" ry="34" fill="url(#rightCheekGlow)" />

    <!-- Beak Cast Shadow -->
    <ellipse cx="256" cy="225" rx="15" ry="7" fill="#3D2B1E" opacity="0.32" />

    <!-- Grounded Feet with 3 Anatomical Rounded Toes (Smooth Pods with Highlights & Crevices) -->
    <g id="feet">
      <!-- Left Foot Ambient Shading -->
      <path d="M 156 455 C 156 445, 235 445, 235 455 L 235 491 L 156 491 Z" fill="#8E7864" opacity="0.35" />

      <!-- Left Foot 3 Rounded Toe Specular Highlights -->
      <ellipse cx="168" cy="474" rx="9" ry="8" fill="#E8DDD1" opacity="0.45" />
      <ellipse cx="194" cy="466" rx="11" ry="10" fill="#FFF2E6" opacity="0.55" />
      <ellipse cx="220" cy="474" rx="9" ry="8" fill="#DFD2C4" opacity="0.45" />

      <!-- Left Foot Deep Ambient Crevices -->
      <path d="M 181 462 L 181 491" stroke="#25160A" stroke-width="3.0" opacity="0.70" stroke-linecap="round" />
      <path d="M 208 462 L 208 491" stroke="#25160A" stroke-width="3.5" opacity="0.70" stroke-linecap="round" />

      <!-- Left Foot Ground Contact Occlusion -->
      <path d="M 156 490 L 235 490" stroke="#080402" stroke-width="2.5" opacity="0.9" />

      <!-- Right Foot Ambient Shading -->
      <path d="M 276 455 C 276 445, 353 445, 353 455 L 353 491 L 276 491 Z" fill="#523E2E" opacity="0.45" />

      <!-- Right Foot 3 Rounded Toe Specular Highlights -->
      <ellipse cx="290" cy="474" rx="8" ry="7" fill="#B5A08C" opacity="0.30" />
      <ellipse cx="317" cy="466" rx="10" ry="9" fill="#C4B09C" opacity="0.35" />
      <ellipse cx="341" cy="474" rx="8" ry="7" fill="#B8A490" opacity="0.30" />

      <!-- Right Foot Deep Ambient Crevices -->
      <path d="M 303 462 L 303 491" stroke="#180C04" stroke-width="3.0" opacity="0.75" stroke-linecap="round" />
      <path d="M 330 462 L 330 491" stroke="#180C04" stroke-width="3.0" opacity="0.75" stroke-linecap="round" />

      <!-- Right Foot Ground Contact Occlusion -->
      <path d="M 276 490 L 354 490" stroke="#080402" stroke-width="2.5" opacity="0.9" />
    </g>
  </g>

  <!-- 3. Eye Sockets & Amber Eyes (Elliptical Anatomic Aperture) -->
  <!-- Left Eye -->
  <g id="left_eye">
    <!-- Brow Crevice / Socket Rim -->
    <ellipse cx="191" cy="153" rx="26" ry="18.5" fill="#3D2817" opacity="0.65" />
    <ellipse cx="191" cy="153" rx="24" ry="17" fill="#1C0C02" />
    <!-- Amber Iris -->
    <ellipse cx="191" cy="153" rx="23" ry="16" fill="url(#amberEyeL)" />
    <!-- Pupil -->
    <ellipse cx="193" cy="149" rx="13.5" ry="10.5" fill="url(#pupilGrad)" />
  </g>

  <!-- Right Eye -->
  <g id="right_eye">
    <!-- Brow Crevice / Socket Rim -->
    <ellipse cx="312" cy="158" rx="27.5" ry="19" fill="#301A0D" opacity="0.75" />
    <ellipse cx="312" cy="158" rx="25.5" ry="17.5" fill="#180A02" />
    <!-- Amber Iris -->
    <ellipse cx="312" cy="158" rx="24.5" ry="16.5" fill="url(#amberEyeR)" />
    <!-- Pupil -->
    <ellipse cx="310" cy="154" rx="13.5" ry="10.5" fill="url(#pupilGrad)" />
  </g>

  <!-- 4. Beak (Porcelain Amber) -->
  <g id="beak">
    <path d="M 256 168 C 267 184, 268 206, 256 218 C 244 206, 245 184, 256 168 Z" fill="url(#beakGrad)" />
    <path d="M 256 172 C 259 184, 259 200, 256 212" stroke="#FFFFFF" stroke-width="0.9" stroke-linecap="round" opacity="0.25" fill="none" />
  </g>
</svg>